<svg width="139.21596984863282px" height="121.45453796386718px" xmlns="http://www.w3.org/2000/svg" viewBox="180.3920150756836 14.272731018066409 139.21596984863282 121.45453796386718" preserveAspectRatio="xMidYMid"><defs><linearGradient id="editing-outline-gradient" x1="-0.4135" x2="1.4135" y1="0.0932" y2="0.9067"><stop offset="0" stop-color="#ee4208"></stop><stop offset="1" stop-color="#4139ff"></stop></linearGradient><filter id="editing-outline" x="-100%" y="-100%" width="300%" height="300%"><feMorphology in="SourceGraphic" operator="dilate" radius="2" result="outline"></feMorphology><feComposite operator="out" in="outline" in2="SourceAlpha"></feComposite></filter></defs><g filter="url(#editing-outline)"><g transform="translate(209.04964637756348, 97.14499855041504)"><path d="M29.18 1.28L29.18 1.28L29.18 1.28Q20.99 1.28 20.22-10.37L20.22-10.37L9.22-10.37L9.22-10.37Q7.94-7.42 7.04-4.86L7.04-4.86L5.38 0L-3.58 0L16.58-42.24L30.34-42.24L33.02-11.14L33.02-11.14Q33.66-4.42 36.22-2.43L36.22-2.43L36.22-2.43Q34.37 1.28 29.18 1.28ZM14.72-23.17L11.20-15.04L20.03-15.04L19.26-31.49L19.26-33.22L14.72-23.17ZM81.47-26.56L81.47-26.56L81.47-26.56Q81.47 0.70 51.90 0.70L51.90 0.70L51.90 0.70Q47.17 0.70 39.36-0.45L39.36-0.45L46.53-38.27L46.53-38.27Q47.04-40.83 47.36-42.30L47.36-42.30L47.36-42.30Q57.09-43.01 61.41-43.01L61.41-43.01L61.41-43.01Q65.73-43.01 69.70-42.11L69.70-42.11L69.70-42.11Q73.66-41.22 76.29-39.23L76.29-39.23L76.29-39.23Q81.47-35.33 81.47-26.56ZM68.29-28.93L68.29-28.93L68.29-28.93Q68.29-38.46 61.44-38.46L61.44-38.46L60.80-38.46L60.80-38.46Q60.48-38.46 60.16-38.40L60.16-38.40L53.57-4.03L53.57-4.03Q53.82-3.90 54.08-3.90L54.08-3.90L54.59-3.90L54.59-3.90Q56.96-3.90 59.42-5.38L59.42-5.38L59.42-5.38Q61.89-6.85 63.81-9.86L63.81-9.86L63.81-9.86Q68.29-16.83 68.29-28.93Z" fill="url(#editing-outline-gradient)"></path></g></g><style>text {
  font-size: 64px;
  font-family: Arial Black;
  dominant-baseline: central;
  text-anchor: middle;
}</style></svg>